<svg role="img" aria-label="Ardmore Trailer Inc." xmlns="http://www.w3.org/2000/svg" viewBox="95 65 1140 440"><path fill="#18186C" fill-rule="evenodd" d="M277.3 502.0C273.4 501.6 268.2 500.3 265.8 499.2C258.6 495.9 256.0 495.0 253.5 495.0C252.2 495.0 250.3 493.9 249.2 492.5C248.1 491.1 246.8 490.0 246.3 490.0C244.9 490.0 236.4 480.8 234.4 477.1C227.0 463.7 225.9 462.6 217.8 460.7C213.8 459.7 206.7 458.8 202.0 458.5C191.8 458.0 180.1 456.3 174.0 454.5C166.0 452.1 151.7 446.9 148.8 445.4C147.3 444.6 145.3 444.0 144.3 444.0C143.2 444.0 139.1 442.0 135.1 439.5C131.1 437.0 127.0 435.0 126.0 435.0C125.0 435.0 123.7 434.3 123.0 433.5C122.3 432.6 119.4 430.8 116.6 429.5C111.1 426.8 105.6 422.2 102.7 417.7C101.1 415.2 100.9 412.7 101.0 396.7C101.2 379.5 101.4 378.3 103.6 374.3C105.0 371.8 106.0 368.5 106.0 366.1C106.0 363.9 106.4 361.9 106.9 361.6C107.3 361.3 108.0 359.6 108.4 357.8C108.7 356.0 110.2 353.4 111.5 352.0C114.8 348.5 117.0 331.4 115.4 320.9C114.8 316.6 115.0 316.0 117.9 313.0C119.6 311.2 122.4 309.5 124.2 309.1C128.2 308.3 128.7 306.3 129.4 288.9C129.6 282.1 130.2 275.0 130.6 273.2C131.0 271.1 130.8 268.9 130.0 267.5C129.1 265.8 129.0 264.3 129.8 261.9C130.4 260.0 131.2 256.6 131.5 254.3C131.9 252.0 132.7 249.7 133.3 249.1C134.8 247.9 187.8 247.9 190.2 249.1C191.1 249.6 192.9 251.7 194.2 253.7C196.4 257.3 196.7 259.6 197.0 273.5C197.0 276.2 196.2 293.8 195.5 302.8C194.8 313.5 195.2 314.0 205.9 314.0C218.2 314.0 218.0 313.5 218.0 335.5C218.0 339.9 217.3 347.0 216.3 351.2L214.6 359.0L203.4 359.0C190.2 359.0 189.0 358.7 189.0 355.1L189.0 352.4L200.2 352.5C210.9 352.5 211.5 352.4 211.8 350.4C212.3 347.1 210.1 346.2 200.6 345.7C190.1 345.1 186.0 346.9 186.0 352.3C186.0 355.9 184.4 359.0 182.5 359.0C181.7 359.0 181.0 359.8 181.0 360.8C181.0 362.5 182.2 362.8 191.6 363.3C203.6 364.1 205.1 364.6 207.3 369.2C210.3 375.3 208.3 375.7 185.5 373.5C180.9 373.0 179.0 373.2 177.5 374.4C174.6 376.6 176.7 377.7 185.6 378.5C189.5 378.9 193.3 379.6 194.0 380.0C194.7 380.5 196.1 380.3 197.1 379.7C198.5 378.8 199.7 378.9 202.2 379.9C206.1 381.6 218.3 382.5 220.3 381.3C221.0 380.9 223.6 378.3 226.1 375.6C230.3 371.0 230.5 370.3 231.2 363.1C233.3 339.1 234.2 331.7 236.0 324.5C237.1 320.1 238.4 311.6 239.0 305.5C239.6 299.4 240.5 292.0 241.1 289.0C241.6 286.0 242.5 279.9 243.0 275.5C243.9 267.9 244.4 264.9 246.8 253.5C247.4 250.8 248.1 246.9 248.4 244.9C248.8 243.0 249.9 240.4 251.1 239.2C253.1 237.0 253.3 237.0 277.3 237.6C290.6 237.9 329.6 238.2 364.0 238.2L426.4 238.1L428.0 236.0C429.4 234.1 430.2 233.9 434.3 234.5C439.8 235.3 441.6 233.4 438.5 230.0C435.9 227.1 426.1 227.2 423.5 230.0C421.9 231.8 420.7 231.9 410.6 231.6C397.5 231.2 398.3 231.3 399.8 229.8C400.5 229.1 404.1 228.2 407.8 227.8C424.1 226.1 424.4 226.0 425.9 221.2C427.3 216.7 426.8 214.8 424.8 216.8C422.8 218.8 421.8 218.2 422.2 215.2C422.5 212.9 422.9 212.5 425.2 212.8C428.3 213.1 428.8 211.9 426.5 210.0C424.8 208.6 424.5 205.4 426.1 204.5C426.7 204.1 426.9 203.2 426.6 202.5C426.4 201.8 426.7 200.7 427.3 200.1C428.6 198.8 428.8 189.2 427.6 184.6C426.4 179.8 423.7 181.7 422.5 188.0C421.9 191.0 421.1 194.1 420.6 194.8C419.8 196.1 416.4 210.0 415.3 216.7C414.9 219.2 414.1 220.1 410.7 221.4C405.6 223.3 409.7 223.0 370.1 224.4C359.9 224.7 353.3 225.4 352.4 226.1C351.3 227.0 344.7 227.1 326.2 226.6C292.7 225.6 288.6 225.6 286.3 226.8C284.8 227.7 283.8 227.5 282.0 226.3C280.4 225.2 279.3 225.0 278.1 225.7C277.2 226.2 274.9 226.5 273.0 226.3C271.1 226.2 250.8 225.8 228.0 225.6C188.8 225.2 186.2 225.0 181.7 223.1C179.0 221.9 175.8 221.0 174.6 221.0C173.4 221.0 171.5 220.3 170.4 219.5C169.4 218.7 167.5 218.0 166.3 218.0C165.1 218.0 163.6 217.0 162.9 215.9C161.9 214.0 161.7 213.9 160.3 215.3C158.0 217.5 160.3 223.2 163.4 222.9C169.0 222.5 172.0 223.2 176.3 226.1C182.2 230.0 182.7 232.5 177.2 231.5C175.2 231.1 169.1 230.7 163.8 230.6C155.5 230.5 153.8 230.8 151.3 232.6C149.8 233.7 147.2 235.0 145.6 235.4C144.0 235.8 141.0 237.9 138.8 240.1C134.7 244.2 133.2 244.8 131.2 242.8C129.8 241.4 137.1 233.4 140.7 232.5C143.9 231.7 145.3 227.8 144.0 223.1C143.4 220.9 143.4 218.2 143.9 216.4C144.3 214.8 144.5 212.1 144.3 210.4C143.7 206.7 145.4 203.0 147.6 203.0C148.8 203.0 159.5 199.7 170.5 195.9C172.2 195.4 177.2 194.7 181.6 194.3C189.6 193.7 189.8 193.8 191.5 196.4C192.7 198.2 193.4 201.9 193.8 208.0L194.3 217.0L197.4 217.5C199.1 217.8 203.0 217.9 206.0 217.8C209.0 217.6 219.6 217.9 229.5 218.3C249.8 219.2 329.0 219.4 329.8 218.5C330.1 218.2 330.7 215.6 331.2 212.7C332.8 201.7 333.3 199.4 334.4 197.8C335.1 196.8 335.4 194.2 335.1 191.3C334.5 186.6 334.4 186.5 330.7 186.2C327.5 185.9 320.9 187.8 311.8 191.5C310.6 192.0 310.0 191.8 310.0 190.9C310.0 190.1 314.1 187.6 319.1 185.2C325.2 182.2 328.5 180.1 329.2 178.4C329.8 177.1 330.7 176.0 331.2 176.0C331.7 176.0 333.4 174.8 335.0 173.2C337.9 170.4 346.3 165.9 356.0 162.0C359.0 160.8 367.0 157.1 373.7 153.9C381.5 150.0 388.0 147.6 391.9 146.9C395.2 146.4 399.2 145.5 400.7 144.9C402.3 144.2 409.1 143.8 416.8 143.9C426.8 144.0 430.1 143.8 430.4 142.8C430.7 142.1 431.1 129.9 431.5 115.7C432.3 80.8 431.9 81.9 441.2 82.7L447.0 83.2L447.0 90.9C447.0 95.1 446.5 108.4 445.9 120.4C445.3 133.4 445.3 142.7 445.8 143.2C446.3 143.7 456.1 144.4 467.7 144.7L488.6 145.2L491.9 141.1C493.7 138.9 495.7 137.0 496.4 137.0C498.3 137.0 502.7 131.8 503.4 128.8C504.1 125.6 507.3 124.4 518.0 123.4C522.1 123.0 526.9 122.6 528.5 122.4C530.1 122.2 534.5 121.9 538.2 121.8C541.9 121.6 545.1 121.2 545.4 120.9C545.7 120.7 546.3 113.5 546.7 105.0C547.2 95.2 547.9 89.7 548.5 90.0C549.6 90.6 549.7 99.8 548.7 122.0C548.3 130.5 547.8 145.4 547.6 155.1C547.1 173.0 546.5 178.4 544.9 177.4C544.4 177.1 544.3 171.5 544.6 164.6C545.4 148.5 545.9 149.0 529.2 149.0C522.2 148.9 513.6 149.0 510.0 149.1C499.6 149.4 480.4 149.2 454.0 148.5C440.5 148.1 428.4 147.9 427.0 147.9C425.6 148.0 423.4 148.0 422.0 147.9C412.2 147.6 396.9 148.4 391.9 149.5C390.0 149.9 386.7 151.5 384.6 153.1C382.4 154.7 380.2 156.0 379.8 156.0C379.3 156.0 377.1 156.9 374.7 157.9C372.4 159.0 368.5 160.5 366.0 161.4C350.2 166.7 337.0 174.5 337.0 178.7C337.0 180.6 341.6 180.3 344.7 178.3C347.7 176.3 350.8 175.1 362.5 171.4C375.0 167.4 375.9 167.2 387.0 166.0C392.7 165.4 397.7 164.7 398.1 164.5C398.4 164.2 404.4 163.8 411.4 163.6C418.4 163.3 424.8 162.6 425.8 162.1C426.7 161.6 436.1 160.9 446.7 160.5L465.9 159.8L467.0 164.1C468.6 170.7 469.9 173.2 471.3 172.7C471.9 172.5 474.5 172.9 477.0 173.5C479.5 174.2 485.6 175.1 490.5 175.5C499.3 176.2 503.4 176.5 505.6 176.8C506.2 176.9 507.9 178.2 509.3 179.6C511.6 181.9 511.9 182.9 511.6 187.5C511.3 190.4 510.8 201.8 510.4 212.9C509.7 233.0 509.7 233.0 507.3 233.6C504.7 234.3 461.0 233.3 457.6 232.5C454.9 231.8 453.7 232.7 451.9 236.5C450.7 239.1 449.9 239.5 446.1 239.8C438.7 240.3 435.0 243.4 435.0 249.3C435.0 253.9 433.5 254.6 427.7 253.2C425.4 252.6 417.1 252.0 409.2 251.9C395.0 251.6 395.0 251.6 392.2 254.3C390.7 255.8 388.4 257.0 387.3 257.0C384.7 257.0 384.4 257.4 383.5 262.7C382.9 266.8 383.0 267.1 386.3 269.0C392.0 272.4 393.8 279.4 389.9 283.6C387.4 286.3 387.1 290.9 389.4 294.1C391.5 297.2 391.4 299.8 388.9 303.9C385.8 309.0 384.3 308.6 413.2 309.6C428.5 310.1 431.0 310.0 431.0 308.7C431.0 306.5 429.3 306.2 416.3 305.9C399.5 305.6 397.0 305.2 396.0 302.4C394.8 299.4 396.7 294.0 398.8 294.0C399.8 294.0 407.2 294.5 415.4 295.0C431.7 296.2 432.0 296.1 432.6 290.7C433.3 285.0 431.6 284.4 414.1 283.6C398.6 282.9 396.0 282.3 396.0 279.1C396.0 275.4 398.0 275.0 414.0 275.1C422.5 275.2 430.5 275.5 431.8 275.8C433.9 276.4 435.4 278.8 441.6 291.1C442.3 292.5 442.7 294.6 442.4 295.7C441.8 297.8 443.6 304.7 446.5 311.5C447.8 314.6 448.1 317.1 447.6 323.1L447.0 330.8L450.3 331.4C452.0 331.8 467.1 332.3 483.8 332.6C506.8 333.0 515.1 333.5 518.2 334.6C523.6 336.5 524.2 335.8 524.9 326.3C525.6 317.0 526.2 316.0 530.3 316.0C532.1 316.0 534.1 315.6 534.7 315.2C535.9 314.4 537.3 287.1 538.6 240.0C538.8 231.5 539.3 216.5 539.6 206.8C540.2 192.0 540.1 189.0 538.9 188.5C538.1 188.2 533.2 187.8 528.0 187.6C522.8 187.4 517.7 187.1 516.8 187.1C515.8 187.0 515.0 186.3 515.0 185.5C515.0 183.7 514.9 183.7 531.5 183.9C543.4 183.9 544.6 184.1 545.9 186.0C547.0 187.6 548.3 188.0 553.1 188.0C556.3 188.0 559.1 187.6 559.5 187.1C560.1 186.0 560.7 172.4 561.5 140.0C561.8 128.2 562.3 114.7 562.6 110.0C562.9 105.3 563.2 96.1 563.4 89.5C563.9 72.7 563.9 73.0 565.1 73.0C565.9 73.0 566.0 77.5 565.5 89.5C564.8 105.9 564.8 106.0 566.9 106.0C568.1 106.0 569.3 105.3 569.6 104.5C570.0 103.7 571.0 103.0 572.0 103.0C573.0 103.0 574.3 102.4 574.9 101.7C576.3 100.0 589.8 97.6 613.0 95.0C617.7 94.4 622.4 93.6 623.5 93.1C624.6 92.5 628.2 91.6 631.5 91.0C647.2 88.1 652.2 87.0 653.3 86.3C654.0 85.9 657.0 85.3 660.0 84.9C669.8 83.7 681.8 81.2 684.9 79.6C688.9 77.5 706.4 77.4 712.9 79.5C715.4 80.2 719.3 81.4 721.5 81.9C729.3 83.9 743.5 88.1 746.0 89.2C747.4 89.8 749.2 90.4 750.0 90.5C752.4 90.8 756.2 92.1 761.8 94.6C764.7 95.9 767.6 97.0 768.3 97.0C769.5 97.0 781.1 100.6 791.5 104.2C794.8 105.3 799.8 106.7 802.5 107.3C805.2 107.8 811.4 109.6 816.1 111.1C820.9 112.7 826.1 114.0 827.8 114.0C829.5 114.0 832.4 114.9 834.2 115.9C836.0 116.9 840.0 118.3 843.0 119.0C846.0 119.7 850.3 120.8 852.5 121.5C854.7 122.2 857.2 122.8 858.0 122.8C861.6 122.9 868.1 124.4 876.0 126.9C880.7 128.4 887.9 130.7 892.0 131.9C896.1 133.2 901.1 134.8 903.0 135.6C904.9 136.3 908.3 137.2 910.5 137.5C912.7 137.8 916.8 138.7 919.5 139.5C922.2 140.3 928.1 141.6 932.5 142.5C936.9 143.4 941.4 144.6 942.5 145.0C943.6 145.5 947.1 146.4 950.2 146.9C953.4 147.5 959.8 149.3 964.5 151.0C969.3 152.6 974.1 154.0 975.3 154.0C976.5 154.0 978.6 154.9 980.0 156.0C981.4 157.1 983.4 158.0 984.4 158.0C986.7 158.0 1001.1 160.7 1006.0 162.0C1008.0 162.5 1012.5 163.4 1016.0 164.0C1019.6 164.5 1025.4 165.7 1029.0 166.6C1032.6 167.4 1038.7 168.8 1042.5 169.6C1060.2 173.3 1067.5 175.4 1069.8 177.7C1070.5 178.4 1072.2 179.0 1073.5 179.0C1074.8 179.0 1077.1 179.5 1078.7 180.1C1080.2 180.7 1085.8 182.3 1091.0 183.7C1096.2 185.0 1102.1 186.6 1104.0 187.2C1105.9 187.7 1110.9 188.8 1115.0 189.5C1124.6 191.3 1135.8 194.2 1144.0 197.0C1155.1 200.7 1156.3 201.1 1164.0 203.2C1168.1 204.3 1172.4 205.6 1173.5 206.1C1174.6 206.6 1177.3 207.4 1179.5 207.9C1186.8 209.7 1202.4 213.8 1208.0 215.5C1211.0 216.3 1216.3 217.6 1219.7 218.2C1226.3 219.5 1227.7 221.1 1226.6 226.3C1226.3 227.5 1225.8 242.4 1225.4 259.5C1225.0 276.6 1224.5 293.2 1224.3 296.5C1224.2 299.8 1223.8 309.5 1223.5 318.0C1223.2 326.5 1222.8 336.4 1222.6 340.0C1222.5 343.6 1222.3 349.1 1222.2 352.3C1222.0 357.6 1221.6 358.6 1218.6 361.6C1216.7 363.5 1214.8 366.0 1214.5 367.0C1214.1 368.1 1213.1 369.0 1212.1 369.0C1211.1 369.0 1209.1 370.7 1207.6 372.9C1205.3 376.2 1205.1 377.1 1206.0 379.6C1206.6 381.2 1206.9 384.3 1206.5 386.5C1205.6 393.1 1200.5 406.4 1197.6 410.3C1194.9 413.8 1194.8 413.9 1186.2 414.3C1181.4 414.5 1175.5 415.3 1173.0 415.9C1169.8 416.8 1163.9 417.0 1153.0 416.6C1130.1 415.8 1129.4 415.6 1123.5 409.9L1118.5 405.0L1092.0 405.5C1076.9 405.8 1064.1 406.5 1062.2 407.1C1060.4 407.7 1057.2 408.0 1055.2 407.8C1051.8 407.4 1042.5 407.7 1002.1 409.5C994.7 409.8 988.2 410.4 987.6 410.8C987.0 411.1 981.6 411.3 975.5 411.2C963.7 410.9 943.9 412.3 942.0 413.5C941.3 413.9 932.1 414.4 921.4 414.5C899.8 414.9 897.7 415.4 896.5 421.1C896.1 422.8 895.1 425.0 894.1 425.9C893.2 426.8 891.6 429.2 890.5 431.3C889.4 433.3 887.8 435.0 886.9 435.0C886.0 435.0 884.0 436.0 882.4 437.2C879.6 439.4 879.0 439.5 851.5 439.6C822.7 439.6 820.1 440.0 816.7 443.8C812.7 448.2 803.3 448.6 751.1 446.4C741.1 446.0 729.9 444.1 729.6 442.6C729.4 442.0 728.7 439.9 728.0 438.0C723.1 424.3 723.5 424.7 713.5 425.4C702.3 426.3 690.7 426.8 668.0 427.4C657.3 427.7 644.0 428.4 638.5 429.0C633.0 429.6 622.9 430.3 616.0 430.5C609.1 430.8 599.2 431.4 594.0 432.0C581.8 433.2 572.4 433.8 531.0 435.6C524.7 435.9 511.9 436.8 502.5 437.6C493.1 438.4 484.6 439.1 483.5 439.1C482.4 439.1 477.0 439.1 471.5 439.1C466.0 439.2 459.7 439.4 457.5 439.6C455.3 439.9 444.1 440.5 432.5 440.9C389.9 442.7 376.8 443.9 374.3 446.2C373.0 447.4 372.0 449.2 372.0 450.3C372.0 453.2 363.9 465.0 359.1 468.9C356.9 470.8 355.0 472.9 355.0 473.6C355.0 475.3 341.1 488.1 334.3 492.5C331.1 494.7 327.9 497.0 327.2 497.7C326.5 498.4 325.2 499.0 324.4 499.0C323.6 499.0 323.0 499.5 323.0 500.0C323.0 500.6 321.8 500.9 320.2 500.8C318.7 500.7 316.4 501.2 315.2 501.9C313.8 502.7 311.7 502.9 310.2 502.5C307.4 501.7 298.3 501.7 289.5 502.4C286.8 502.6 281.3 502.5 277.3 502.0Z M314.2 468.2C314.9 467.5 316.1 467.0 317.0 467.0C317.9 467.0 321.0 465.9 323.8 464.5C326.7 463.1 329.4 462.0 329.9 462.0C330.4 462.0 331.2 461.0 331.6 459.8C332.0 458.5 334.4 455.3 337.0 452.7C341.9 447.7 342.1 447.1 344.2 435.0C346.3 422.4 343.7 402.0 340.0 402.0C339.4 402.0 339.0 400.9 339.0 399.6C339.0 398.0 338.1 396.9 336.2 396.1C334.7 395.4 332.6 393.5 331.5 391.7C330.4 390.0 326.8 387.1 323.5 385.3C317.5 382.0 317.5 382.0 307.0 382.7C299.0 383.1 295.9 383.7 294.1 385.1C292.8 386.2 290.6 387.0 289.2 387.0C287.7 387.0 284.5 388.8 281.2 391.5C278.2 394.0 275.2 396.0 274.5 396.0C273.2 396.0 264.4 406.8 262.2 411.0C261.5 412.4 260.3 414.6 259.4 416.0C258.4 417.7 258.1 419.9 258.5 422.6C258.8 424.8 258.6 427.9 258.0 429.4C257.2 431.6 257.3 432.9 258.5 435.3C259.3 436.9 260.0 439.1 260.0 440.2C260.0 443.3 265.0 451.7 268.3 454.3C270.1 455.7 273.3 458.6 275.5 460.9C277.7 463.1 280.1 465.0 280.8 465.0C281.5 465.0 282.3 465.7 282.6 466.5C283.0 467.5 284.7 468.0 287.4 468.1C289.6 468.2 292.6 468.5 294.0 468.9C298.1 470.1 312.8 469.6 314.2 468.2Z M300.0 449.8C298.6 449.2 296.3 448.8 294.8 448.9C292.7 449.0 290.8 447.7 286.7 443.6C279.2 436.2 278.0 433.4 278.0 423.6C278.0 415.6 278.0 415.4 282.1 410.5C284.4 407.7 287.4 405.1 288.8 404.6C290.3 404.1 291.7 403.4 292.0 403.0C292.3 402.6 293.6 402.0 295.0 401.7C296.4 401.4 298.8 400.8 300.3 400.4C305.4 399.2 319.8 404.4 321.3 408.0C321.8 409.4 323.0 412.1 323.8 414.0C326.0 418.9 325.9 434.0 323.7 437.3C321.3 441.0 314.7 447.0 313.1 447.0C312.3 447.0 310.9 447.7 310.0 448.5C307.8 450.5 303.0 451.2 300.0 449.8Z M182.3 431.9C183.5 431.2 188.7 430.7 194.6 430.8C208.1 430.9 209.4 429.9 208.4 420.0C208.0 415.5 208.1 413.0 208.9 412.6C209.5 412.2 210.0 410.2 210.0 408.2C210.0 406.2 210.7 403.3 211.5 401.7C213.5 397.7 210.5 395.0 203.8 395.0C201.2 395.0 197.3 394.3 195.3 393.5C193.2 392.7 189.5 391.8 187.0 391.6C184.5 391.4 180.9 390.9 178.9 390.5C175.6 389.8 175.0 390.1 172.6 393.2C171.1 395.2 170.0 398.0 170.0 399.8C170.0 402.0 169.4 403.0 168.0 403.5C164.8 404.5 164.0 403.2 164.0 397.1L164.0 391.3L159.8 390.5C151.7 389.2 144.0 388.0 138.1 387.2C134.8 386.8 131.8 386.1 131.4 385.8C130.0 384.3 127.0 387.1 127.0 389.8C127.0 393.0 125.4 395.0 122.8 395.0C120.6 395.0 119.0 391.4 119.7 387.8C120.4 384.3 116.7 379.0 113.6 379.0C112.4 379.0 110.9 378.5 110.4 378.0C109.7 377.3 108.5 377.2 106.7 377.9L104.0 379.0L104.0 391.4C104.0 398.2 103.7 405.1 103.4 406.8C102.9 409.3 103.3 410.2 106.1 412.6C107.9 414.2 110.8 416.9 112.4 418.6C115.3 421.4 117.9 422.8 127.8 426.4C140.8 431.2 142.6 431.5 158.5 432.1C167.3 432.4 175.8 432.7 177.3 432.8C178.9 432.9 181.1 432.5 182.3 431.9Z M478.0 429.5C478.8 429.0 487.4 428.5 497.0 428.4C506.6 428.3 517.9 427.9 522.0 427.6C526.1 427.3 532.3 426.9 535.7 426.8C540.8 426.5 542.4 426.1 544.5 424.0L547.0 421.4L545.0 417.5C543.9 415.3 542.6 412.8 542.0 412.0C539.0 407.5 533.9 399.2 532.9 397.0C532.3 395.6 530.2 391.1 528.3 387.0C525.4 380.7 525.0 379.1 525.9 376.8C526.7 374.8 526.5 372.8 525.5 369.3C524.7 366.7 524.0 363.5 524.0 362.3C524.0 359.1 523.1 358.9 510.8 358.9C498.7 359.0 498.1 359.2 497.1 364.2C496.4 367.4 496.3 367.5 491.1 367.8C488.2 367.9 485.2 367.6 484.6 367.1C483.9 366.5 482.9 366.5 482.0 367.1C480.3 368.1 467.1 367.2 465.5 365.9C464.9 365.5 462.6 365.5 460.5 366.0C458.3 366.5 451.6 366.6 445.5 366.3C439.4 366.0 433.1 365.8 431.5 365.9C428.0 366.0 424.0 364.2 424.0 362.4C424.0 360.5 427.3 359.0 431.7 358.9C439.9 358.7 440.1 358.4 440.7 349.0C441.2 340.2 441.2 326.9 440.6 326.3C440.2 325.9 427.9 325.2 403.1 324.4C391.8 324.1 382.2 323.6 381.9 323.4C381.5 323.2 381.5 320.1 381.8 316.5C382.2 310.7 382.0 309.4 379.3 304.2C377.6 301.1 375.3 295.4 374.0 291.5C372.7 287.6 370.9 282.7 370.0 280.5C367.6 275.2 360.0 251.4 360.0 249.4C360.0 248.0 362.1 247.9 377.0 248.1C395.0 248.4 397.7 247.9 395.4 244.2C394.4 242.6 391.3 242.5 359.9 242.4C341.0 242.4 309.2 242.0 289.3 241.6L253.1 240.8L252.1 244.6C251.6 246.8 250.8 250.8 250.4 253.5C250.1 256.2 249.4 258.9 249.0 259.5C248.0 260.9 247.0 265.3 245.9 274.0C245.3 278.1 244.4 284.4 243.9 288.0C242.8 295.6 242.6 297.5 240.5 318.5C239.6 327.3 238.4 336.4 237.9 338.7C237.4 341.0 237.0 345.0 237.0 347.7C236.9 350.3 236.3 354.3 235.5 356.5C233.9 360.9 233.5 371.0 234.9 371.0C235.3 371.0 237.2 368.8 239.1 366.2C241.0 363.5 245.4 358.8 249.0 355.6C252.6 352.4 255.9 349.0 256.5 348.0C257.9 345.4 265.9 339.2 268.7 338.5C270.0 338.2 273.4 336.9 276.3 335.6C279.1 334.3 283.8 332.8 286.5 332.2C289.2 331.6 293.3 330.6 295.5 330.0C301.2 328.3 313.3 327.4 317.2 328.3C319.0 328.8 322.3 329.4 324.5 329.7C326.7 330.0 328.9 330.6 329.5 331.0C330.1 331.4 332.9 332.3 335.8 333.0C338.6 333.6 341.3 334.6 341.6 335.1C341.9 335.6 343.0 336.0 344.1 336.0C345.1 336.0 346.0 336.4 346.0 337.0C346.0 337.5 347.2 338.3 348.8 338.6C350.3 339.0 354.9 342.7 359.2 346.9C363.4 351.1 368.7 356.3 371.0 358.5C374.9 362.3 382.0 375.0 382.0 378.1C382.0 378.9 382.4 380.0 382.9 380.6C384.4 382.0 386.2 389.7 386.7 396.5C387.3 403.7 388.3 405.2 392.4 404.8L395.5 404.5L395.3 393.1C395.1 384.2 394.7 381.4 393.5 379.9C392.5 378.9 392.1 377.4 392.5 376.2C392.8 375.1 392.6 373.9 392.1 373.6C391.6 373.2 391.4 371.4 391.7 369.6C392.1 366.8 391.5 365.2 388.0 360.3C382.5 352.4 382.7 349.6 388.8 349.3C392.1 349.2 393.4 349.6 394.6 351.3C403.6 364.3 404.4 365.8 404.5 371.5L404.5 376.5L436.5 377.1C454.1 377.5 476.2 377.9 485.6 378.0L502.7 378.2L502.5 388.7C502.4 394.4 501.8 399.6 501.3 400.1C499.8 401.6 452.8 401.2 437.5 399.5C435.3 399.3 430.9 399.1 427.8 399.1L422.0 399.0L422.0 392.1L422.0 385.3L417.8 385.3C412.6 385.2 410.0 386.5 410.0 388.8C410.0 392.2 413.1 402.5 414.6 404.2C415.5 405.1 415.9 406.3 415.6 406.8C415.0 407.8 417.2 415.6 419.4 419.8C420.3 421.5 421.0 424.1 421.0 425.5C421.0 430.3 424.6 430.9 452.0 430.6C465.5 430.5 477.2 430.0 478.0 429.5Z M807.7 429.0C815.0 428.9 819.5 420.7 820.3 406.0C821.0 392.9 819.4 387.2 813.7 382.6C806.6 376.9 794.1 379.5 787.2 388.2C784.9 391.1 783.9 401.4 785.0 410.8C786.1 419.3 786.2 419.6 790.8 424.3C795.7 429.2 800.3 431.3 803.2 429.9C804.1 429.4 806.1 429.0 807.7 429.0Z M292.0 426.5C292.7 425.6 293.9 425.1 294.6 425.4C295.3 425.7 298.3 425.5 301.2 425.0C305.0 424.4 307.4 424.6 309.7 425.5C313.5 427.1 314.0 426.7 314.0 421.8C314.0 415.9 309.4 412.0 302.3 412.0C299.5 412.0 296.8 412.5 296.4 413.1C296.1 413.7 294.9 413.9 293.8 413.7C291.8 413.1 285.0 416.5 285.0 418.1C285.0 418.6 286.0 419.0 287.2 419.0C288.9 419.0 289.1 419.3 288.2 420.2C286.9 421.5 286.6 426.2 287.7 427.3C288.8 428.5 290.7 428.1 292.0 426.5Z M177.7 425.5C176.8 424.7 175.8 421.1 175.5 417.4C174.6 409.8 175.2 409.0 181.2 409.0C184.3 409.0 185.2 409.5 186.4 411.8C187.8 414.5 187.9 423.7 186.6 425.9C185.6 427.5 179.4 427.3 177.7 425.5Z M878.7 420.4C886.0 417.5 889.8 406.3 887.2 395.8C886.6 393.4 885.9 390.4 885.6 389.0C885.3 387.6 883.6 385.0 881.9 383.2L878.8 379.9L871.1 380.5C864.6 381.1 863.2 381.5 861.3 383.7C857.8 387.9 856.6 394.0 857.3 404.1C858.1 414.6 859.0 416.7 863.5 418.6C865.4 419.3 867.1 420.4 867.5 421.0C868.4 422.5 874.4 422.2 878.7 420.4Z M803.0 419.3C795.3 416.7 791.3 413.4 790.5 408.9C789.7 404.7 790.4 404.0 796.5 402.5C804.4 400.5 800.1 395.7 792.0 397.5C789.6 398.0 789.0 397.8 789.0 396.4C789.0 390.7 802.4 382.7 808.2 384.9C815.5 387.7 813.0 420.4 805.5 419.9C805.0 419.9 803.8 419.6 803.0 419.3Z M692.2 417.4C693.6 416.5 693.0 408.6 691.5 406.6C690.7 405.5 690.0 404.0 690.0 403.2C690.0 402.4 689.4 400.4 688.7 398.7C687.0 394.8 685.1 389.5 683.9 385.2C683.0 382.3 682.5 382.0 679.0 382.0C674.5 382.0 671.9 384.8 672.5 389.0C672.7 390.4 673.1 393.6 673.5 396.2C674.5 402.4 673.5 405.6 670.2 407.2C668.1 408.2 667.4 409.3 667.2 412.4C666.6 419.2 666.6 419.2 679.7 418.5C686.1 418.2 691.8 417.6 692.2 417.4Z M869.0 410.8C869.0 407.4 867.8 406.2 864.5 405.8C861.0 405.4 859.9 402.2 862.5 400.0C863.4 399.3 864.0 397.2 864.0 394.9C864.0 392.8 864.5 390.8 865.1 390.5C865.6 390.1 866.5 388.7 867.0 387.4C867.8 385.5 868.7 385.0 871.4 385.0C875.4 385.0 876.8 386.8 879.4 395.3C881.1 400.6 881.1 401.2 879.6 402.9C878.7 403.9 878.0 405.3 878.0 406.2C878.0 408.6 873.6 413.0 871.2 413.0C869.6 413.0 869.0 412.4 869.0 410.8Z M1171.2 402.6C1177.0 395.5 1178.2 381.7 1173.4 377.3C1170.5 374.6 1165.1 373.3 1164.0 375.1C1162.9 376.7 1163.9 379.0 1165.5 379.0C1166.2 379.0 1167.8 380.5 1168.9 382.4C1170.9 385.6 1170.9 385.8 1169.2 390.8C1168.3 393.6 1166.5 397.0 1165.2 398.4C1162.8 401.3 1162.3 404.6 1164.2 405.3C1166.3 406.1 1169.4 404.9 1171.2 402.6Z M1194.6 399.2C1197.0 395.7 1198.7 385.0 1197.6 380.7C1197.1 378.4 1193.4 376.0 1190.5 376.0C1188.4 376.0 1188.7 379.3 1191.0 382.3C1192.4 384.0 1193.0 386.3 1193.0 389.8C1193.0 394.4 1192.7 395.1 1189.3 397.7C1185.3 401.0 1185.5 403.3 1189.8 402.8C1191.5 402.6 1193.3 401.3 1194.6 399.2Z M659.1 395.4C660.8 394.6 662.8 394.1 663.7 394.4C668.0 396.1 670.8 389.2 667.9 383.8C665.6 379.5 668.6 378.9 689.8 379.2C713.7 379.6 713.0 380.0 713.0 365.4C713.0 356.2 713.0 356.0 710.2 354.7C708.6 353.9 705.3 353.5 702.0 353.7C694.6 354.2 694.5 354.2 686.5 353.6C682.6 353.2 677.2 353.5 674.5 354.1C671.8 354.7 667.9 355.4 666.0 355.7C664.1 356.0 662.1 356.9 661.7 357.6C660.8 359.2 657.4 359.5 656.5 358.0C655.5 356.4 652.0 356.8 652.0 358.5C652.0 359.3 653.6 360.7 655.6 361.5C659.0 362.9 659.2 363.3 658.6 366.2C657.6 371.4 656.2 372.3 650.7 371.5C646.7 371.0 645.3 371.2 643.6 372.7C641.6 374.5 640.1 374.5 621.0 373.8C609.7 373.4 597.1 373.3 593.0 373.7C588.9 374.1 584.8 374.3 584.0 374.2C579.1 373.4 546.3 373.5 545.2 374.3C543.5 375.6 543.7 378.0 546.0 382.3C547.1 384.3 548.0 387.6 548.0 389.5C548.0 391.5 548.6 393.2 549.2 393.5C551.0 394.0 580.3 394.9 620.5 395.6C639.2 395.9 654.7 396.4 654.9 396.6C655.6 397.2 655.9 397.1 659.1 395.4Z M742.5 393.8C744.7 391.1 746.0 384.8 744.8 382.6C744.2 381.5 742.5 381.0 739.6 381.0C735.7 381.0 735.3 381.3 733.7 384.8C732.0 388.7 731.4 394.1 732.7 395.3C734.3 396.9 740.6 395.9 742.5 393.8Z M768.8 394.8C769.5 394.1 770.0 391.0 770.0 387.9C770.0 384.7 770.5 381.8 771.0 381.5C771.5 381.2 772.0 379.9 772.0 378.6C772.0 377.4 772.6 375.8 773.2 375.2C774.8 373.6 777.1 361.8 776.0 360.6C774.5 359.1 773.1 361.0 771.4 366.6C770.6 369.5 769.5 372.0 769.1 372.0C768.6 372.0 768.0 373.8 767.6 376.1C767.2 378.3 765.8 381.8 764.5 383.8C761.6 388.0 761.3 392.1 763.6 394.4C765.5 396.3 767.2 396.4 768.8 394.8Z M753.7 391.5C755.0 388.7 755.1 387.8 754.0 386.5C751.1 383.1 747.0 385.8 747.0 391.3C747.0 396.3 751.3 396.5 753.7 391.5Z M728.8 390.0C729.0 388.1 729.6 386.0 730.1 385.4C730.7 384.7 730.7 383.3 730.1 381.9C729.2 379.6 729.2 379.6 728.5 381.5C728.2 382.6 727.2 384.8 726.4 386.3C724.4 390.4 724.5 394.2 726.8 393.8C727.9 393.6 728.6 392.4 728.8 390.0Z M140.0 372.2C140.0 371.3 130.0 366.0 128.2 366.0C127.5 366.0 126.2 365.6 125.2 365.1C118.3 361.6 110.0 361.0 110.0 363.9C110.0 366.7 111.3 367.2 119.0 367.1C125.1 367.1 126.0 367.3 127.4 369.5C128.6 371.3 130.1 372.0 133.2 372.3C135.6 372.5 138.1 372.7 138.8 372.8C139.4 372.9 140.0 372.6 140.0 372.2Z M121.4 356.0C123.7 353.8 122.7 352.0 119.3 352.0C116.1 352.0 111.9 355.6 112.7 357.7C113.4 359.5 118.8 358.5 121.4 356.0Z M514.8 350.4C516.1 350.0 516.5 341.2 515.2 339.5C513.6 337.1 503.3 336.0 478.5 335.6C446.1 335.0 445.6 335.1 445.2 343.1C444.9 348.8 446.6 352.0 449.0 350.5C450.0 349.9 464.8 349.9 498.7 350.5C503.2 350.5 507.2 350.9 507.6 351.3C508.2 351.9 511.2 351.5 514.8 350.4Z M1218.5 335.0C1220.1 278.9 1220.7 247.6 1220.3 246.1C1220.0 245.1 1220.5 242.2 1221.4 239.6C1223.5 233.4 1223.5 226.8 1221.2 224.2C1219.5 222.2 1214.7 220.6 1205.8 219.0C1203.2 218.5 1200.3 217.7 1199.3 217.2C1198.3 216.7 1195.8 216.0 1193.6 215.6C1191.5 215.2 1188.4 214.2 1186.6 213.5C1184.9 212.7 1175.8 210.3 1166.3 208.0C1156.8 205.8 1147.8 203.3 1146.3 202.5C1142.8 200.7 1125.9 195.7 1115.5 193.5C1111.1 192.6 1105.9 191.4 1104.0 190.8C1093.2 187.9 1077.2 183.7 1075.0 183.3C1070.8 182.5 1052.8 176.9 1048.0 174.9C1045.5 173.9 1040.8 172.6 1037.5 172.0C1034.2 171.5 1029.0 170.3 1026.0 169.4C1023.0 168.5 1016.9 167.2 1012.5 166.4C1008.1 165.7 1003.9 164.8 1003.0 164.4C1002.2 164.1 997.5 163.2 992.5 162.5C979.5 160.5 972.8 159.0 970.5 157.6C969.4 156.9 966.7 155.7 964.5 155.0C962.3 154.3 960.0 153.4 959.5 153.0C959.0 152.6 955.6 151.4 952.0 150.5C948.4 149.6 944.6 148.4 943.5 148.0C940.9 146.9 929.8 144.5 919.0 142.6C914.3 141.7 907.6 140.3 904.0 139.5C900.4 138.6 895.6 137.6 893.3 137.1C890.9 136.7 888.2 135.7 887.3 134.8C884.9 132.9 867.0 127.2 859.5 126.0C850.6 124.6 843.3 123.1 835.5 120.8C831.6 119.7 825.7 118.2 822.2 117.5C818.7 116.7 814.5 115.4 812.8 114.5C811.1 113.7 808.7 113.0 807.6 113.0C806.4 113.0 800.8 111.5 795.0 109.6C789.2 107.7 774.4 102.9 762.0 99.0C749.6 95.0 737.9 91.2 736.0 90.4C734.1 89.6 730.5 88.6 728.0 88.1C725.5 87.6 720.8 86.4 717.5 85.5C709.3 83.2 698.5 81.6 696.6 82.3C695.6 82.7 695.0 84.1 695.0 85.8C695.0 87.4 694.8 88.9 694.5 89.2C693.8 89.8 693.3 103.8 692.5 139.0C692.1 154.1 691.7 169.0 691.4 172.0C691.2 175.0 690.8 183.8 690.5 191.5C690.2 199.2 689.8 211.3 689.5 218.5C687.9 256.8 687.5 270.4 686.5 310.1L685.9 336.7L711.7 337.3C725.9 337.7 749.0 338.2 763.0 338.5C807.6 339.4 869.3 341.1 876.0 341.6C879.6 341.9 884.3 342.1 886.5 341.9C893.3 341.6 898.0 341.6 912.5 342.4C920.2 342.7 938.0 343.3 952.0 343.5C966.0 343.8 981.0 344.2 985.3 344.5C989.7 344.8 993.8 344.6 994.9 344.0C996.6 343.2 1061.7 344.3 1077.5 345.5C1079.7 345.6 1094.1 346.1 1109.5 346.5C1124.9 346.9 1141.1 347.4 1145.5 347.6C1149.9 347.8 1165.0 348.3 1179.0 348.6C1193.0 348.9 1204.6 349.3 1204.8 349.5C1205.0 349.7 1208.0 349.7 1211.6 349.6L1218.1 349.5L1218.5 335.0Z M1160.4 335.8C1158.8 330.3 1158.5 326.0 1158.5 302.0C1158.5 273.9 1159.1 269.0 1162.4 269.0C1164.6 269.0 1166.3 276.2 1166.4 285.7C1166.5 296.2 1164.7 296.7 1164.0 286.5C1163.4 278.2 1161.7 276.0 1161.2 283.0C1160.8 288.1 1162.8 324.0 1163.7 328.2C1164.3 331.5 1166.0 331.9 1166.7 329.0C1167.0 327.9 1167.6 327.0 1168.0 327.0C1168.4 327.0 1169.0 324.7 1169.4 321.9C1170.5 314.0 1172.6 317.1 1173.5 327.8C1174.5 341.0 1171.4 347.0 1169.4 335.6L1168.8 331.7L1167.1 336.6C1164.7 343.8 1162.7 343.5 1160.4 335.8Z M677.7 339.5C679.6 339.1 679.9 338.3 679.9 334.7C679.9 326.7 681.8 274.0 682.4 265.3C682.7 260.4 683.3 243.7 683.6 228.0C684.0 212.3 684.4 197.7 684.6 195.5C684.9 193.3 685.5 170.8 686.0 145.5C686.6 120.2 687.4 97.2 687.9 94.5C688.4 91.7 688.4 89.0 687.9 88.4C686.7 86.9 680.0 87.4 676.3 89.3C674.5 90.2 671.6 91.0 669.8 91.0C668.0 91.0 663.1 92.0 659.0 93.1C654.9 94.2 650.1 95.3 648.5 95.5C645.1 95.9 620.8 99.8 617.0 100.5C615.6 100.8 612.3 101.2 609.6 101.5C604.4 102.0 589.6 104.4 582.0 106.0C579.5 106.5 575.9 107.2 574.0 107.6C567.4 108.8 565.0 110.7 565.0 114.4C565.0 120.8 565.3 121.0 575.0 121.0C583.0 121.0 583.9 121.2 584.5 123.0C585.4 125.8 583.0 130.1 579.1 132.7C577.2 134.0 574.9 136.4 573.9 138.0C572.9 139.6 570.3 142.1 568.1 143.4L564.2 145.9L563.6 158.7C562.4 182.7 562.4 185.6 563.9 187.3C565.1 188.8 568.1 189.0 588.4 188.9C601.1 188.9 612.9 189.1 614.5 189.4C616.1 189.6 621.9 190.3 627.3 190.9C632.7 191.5 637.5 192.2 637.9 192.4C638.3 192.7 647.4 193.4 658.1 194.0C679.8 195.2 680.6 195.5 679.5 202.0C678.1 210.4 677.5 217.8 678.1 222.4C678.4 225.1 678.3 233.9 677.8 241.9C677.4 249.9 676.8 266.4 676.5 278.5C675.9 302.4 675.4 304.4 671.0 302.0C669.4 301.2 667.2 301.0 664.1 301.6C658.1 302.6 633.0 302.2 631.5 301.0C630.9 300.5 629.9 300.5 629.0 301.1C628.2 301.6 623.7 301.8 619.0 301.5C614.3 301.2 599.3 300.8 585.5 300.5C571.8 300.2 560.4 299.7 560.2 299.5C559.9 299.3 560.0 298.0 560.4 296.6C560.9 294.6 561.7 294.1 564.8 293.8C569.5 293.4 657.4 295.6 662.9 296.2C664.6 296.4 666.0 295.5 668.0 293.0C670.8 289.6 670.9 289.2 671.6 272.5C671.9 263.1 672.4 248.5 672.5 240.0C672.7 231.5 673.1 220.6 673.4 215.9C674.1 205.9 672.9 203.8 666.9 204.1C664.0 204.3 657.1 203.1 645.5 200.5C643.9 200.1 639.4 199.4 635.5 198.9C631.6 198.5 625.4 197.6 621.5 197.0C617.6 196.4 607.8 195.7 599.5 195.4C591.2 195.2 581.1 194.3 577.0 193.5C572.9 192.8 564.3 191.8 557.9 191.5C542.9 190.6 543.0 190.5 542.9 204.3C542.9 209.9 542.7 216.5 542.6 219.0C542.4 221.5 541.9 238.3 541.5 256.5C541.1 274.6 540.6 289.8 540.4 290.2C540.2 290.5 540.4 292.0 541.0 293.5C541.7 295.4 541.6 297.0 540.5 299.7C538.9 303.4 538.6 314.1 539.9 317.5C540.5 319.1 542.2 319.7 548.1 320.5L555.5 321.5L555.8 329.2L556.1 336.8L569.8 337.2C584.7 337.6 586.5 337.3 587.4 333.6C588.0 331.3 588.3 331.2 600.2 330.8C613.2 330.4 614.0 330.6 614.0 335.1C614.0 337.6 614.3 337.8 620.8 338.5C637.3 340.4 671.1 340.9 677.7 339.5Z M1105.3 338.8C1101.3 333.7 1098.7 305.1 1100.0 281.2C1101.0 263.3 1102.1 258.0 1105.0 258.0C1109.0 258.0 1110.8 265.6 1112.4 287.9L1112.9 295.2L1109.0 294.6L1105.0 294.0L1105.0 302.8C1105.0 310.5 1105.8 317.9 1107.6 325.8C1108.3 329.4 1109.9 327.4 1110.6 322.0C1111.0 319.2 1111.6 317.0 1112.1 317.0C1114.3 317.0 1112.1 333.4 1109.4 337.8C1107.8 340.3 1106.7 340.6 1105.3 338.8Z M1140.7 339.2C1134.5 338.9 1132.7 337.3 1135.1 334.4C1137.0 332.1 1135.6 244.9 1133.5 238.9C1131.7 233.9 1132.5 232.5 1136.8 233.5C1141.0 234.4 1142.5 236.3 1140.9 238.8C1139.0 241.8 1140.9 332.0 1142.9 334.4C1144.0 335.8 1144.5 335.8 1145.0 334.8C1145.9 333.1 1144.5 272.1 1143.5 269.3C1142.8 267.1 1143.0 267.0 1148.1 267.3C1154.7 267.6 1154.6 267.3 1155.4 291.5C1156.1 310.7 1157.1 333.3 1157.3 337.0C1157.5 339.7 1155.6 340.0 1140.7 339.2Z M1065.4 336.5C1063.9 334.2 1063.5 331.3 1063.2 320.5C1062.7 305.6 1065.0 293.9 1069.5 287.2C1071.8 283.8 1072.0 282.6 1072.0 271.7C1072.0 259.0 1071.0 254.9 1068.4 257.1C1067.2 258.1 1067.0 259.5 1067.6 263.4C1068.5 269.0 1068.4 279.6 1067.4 281.1C1064.6 285.6 1062.4 276.4 1063.3 264.2C1064.6 246.9 1071.6 244.1 1076.0 259.0C1077.8 265.1 1078.0 268.6 1078.0 295.7C1078.0 321.2 1078.2 325.9 1079.5 327.0C1080.3 327.7 1081.0 328.9 1081.0 329.7C1081.0 330.5 1081.4 330.8 1082.0 330.5C1083.3 329.7 1082.2 264.7 1080.9 260.3C1079.7 256.6 1080.3 255.0 1082.9 255.0C1086.8 255.0 1087.0 256.8 1087.5 292.1C1088.0 328.5 1088.4 333.4 1090.3 332.7C1092.5 332.0 1091.7 233.3 1089.4 222.2C1088.8 219.3 1089.0 219.0 1091.3 219.0C1092.6 219.0 1094.2 219.6 1094.8 220.2C1095.4 221.0 1096.0 238.5 1096.4 265.0C1097.1 311.6 1097.6 327.3 1098.5 333.2L1099.2 337.0L1090.6 337.0C1082.5 337.0 1081.9 336.8 1081.1 334.8L1080.2 332.5L1079.2 335.2C1077.6 339.2 1076.2 339.4 1074.3 336.1L1072.5 333.1L1069.9 336.3L1067.3 339.4L1065.4 336.5Z M1114.9 337.4C1114.0 336.3 1114.0 335.3 1114.9 333.3C1116.4 329.9 1115.4 270.1 1113.7 265.3C1113.1 263.5 1112.9 261.8 1113.3 261.4C1114.4 260.2 1119.0 262.0 1119.0 263.6C1119.0 264.8 1119.5 264.6 1120.9 262.9C1122.0 261.6 1123.2 260.9 1123.7 261.3C1125.0 262.6 1125.4 282.0 1124.1 283.3C1123.4 284.0 1122.9 283.8 1122.5 282.7C1122.2 281.8 1121.8 280.3 1121.5 279.4C1120.1 274.9 1119.6 280.9 1119.8 299.3C1120.0 316.6 1121.0 331.8 1122.2 337.0C1122.6 338.9 1116.4 339.2 1114.9 337.4Z M989.7 334.2C985.3 329.3 983.0 315.5 982.3 289.0C981.5 259.9 984.5 237.2 989.5 233.0C992.0 230.9 995.8 232.7 997.6 236.8C1000.4 243.3 1003.7 276.6 1001.8 279.6C1001.3 280.3 999.2 280.4 996.0 280.0C992.4 279.5 990.7 279.7 990.4 280.5C989.6 282.6 991.9 311.4 993.1 315.2C995.1 321.4 997.9 319.3 999.5 310.6C1000.2 307.1 1001.3 306.1 1002.5 308.0C1003.3 309.2 999.3 328.6 997.5 332.0C996.2 334.5 994.2 336.0 992.1 336.0C991.7 336.0 990.6 335.2 989.7 334.2Z M1047.5 335.4C1046.8 335.1 1046.6 321.3 1046.8 295.9C1047.1 260.5 1047.0 256.4 1045.4 251.9C1043.3 246.1 1044.0 244.8 1049.0 245.9C1052.3 246.5 1052.5 246.8 1053.1 251.5C1053.4 254.3 1053.8 255.8 1053.8 255.0C1055.5 240.1 1061.0 245.1 1061.0 261.5C1061.0 272.5 1058.6 275.2 1056.5 266.7C1055.9 264.4 1055.5 264.2 1054.3 265.2C1052.4 266.7 1053.0 322.0 1055.0 328.7C1056.7 334.2 1055.9 336.0 1051.8 335.9C1050.0 335.9 1048.0 335.7 1047.5 335.4Z M1026.5 334.1C1022.0 333.4 1020.5 330.5 1023.6 328.3C1026.3 326.3 1026.5 321.0 1026.2 260.8C1026.0 214.5 1025.8 207.0 1024.5 207.0C1022.2 207.0 1020.3 211.8 1019.2 220.5C1018.6 224.9 1018.2 229.2 1018.2 230.0C1018.5 233.6 1017.9 236.1 1017.0 235.5C1016.0 234.9 1016.2 197.5 1017.3 196.4C1017.8 195.9 1023.5 197.7 1037.5 202.8L1042.5 204.6L1042.8 223.3C1043.0 235.5 1042.7 242.0 1042.0 242.0C1041.5 242.0 1041.0 241.7 1041.0 241.2C1040.1 222.5 1038.4 213.4 1035.5 211.0C1033.6 209.4 1033.7 204.7 1034.0 268.2C1034.2 319.9 1034.6 329.0 1036.9 329.8C1038.6 330.4 1038.2 333.7 1036.4 334.4C1034.7 335.1 1032.4 335.0 1026.5 334.1Z M1152.5 308.6C1152.2 294.8 1151.6 282.6 1151.3 281.5C1149.8 276.6 1149.4 284.5 1149.7 306.9C1150.1 331.9 1150.4 335.5 1152.1 334.4C1152.8 334.0 1153.0 325.9 1152.5 308.6Z M224.2 333.0C222.3 332.2 222.0 331.3 222.0 326.2C222.0 318.7 223.4 316.8 228.5 317.2L232.5 317.5L232.5 323.0C232.5 332.2 230.0 335.3 224.2 333.0Z M937.8 332.3C936.9 331.3 935.5 328.7 934.6 326.6C933.1 322.9 932.5 320.3 929.9 305.0C928.5 296.5 928.5 260.0 929.9 248.7C931.6 236.1 935.8 223.2 939.2 220.7C944.5 216.8 948.3 221.9 952.0 237.5C955.7 253.2 956.3 293.7 953.0 309.6C952.4 312.3 951.5 317.0 950.9 320.1C948.7 331.5 942.4 337.4 937.8 332.3Z M963.8 332.3C958.1 331.9 958.0 331.8 958.0 328.9C958.0 327.3 958.7 324.6 959.5 323.0C961.4 319.4 962.5 249.4 960.9 239.5C960.4 236.2 959.6 232.0 959.3 230.1L958.8 226.8L963.1 227.5C968.8 228.4 970.0 229.5 970.1 233.9L970.2 237.5L972.2 232.8C976.1 223.7 979.4 227.4 980.5 242.0C981.3 251.4 980.1 258.4 977.7 258.8C975.8 259.2 974.5 256.6 973.5 250.7C973.2 248.6 972.5 247.2 972.0 247.5C970.4 248.5 969.9 257.8 969.8 289.6C969.6 320.9 969.7 321.8 971.9 325.9C974.1 330.2 973.5 333.3 970.6 332.8C970.0 332.7 966.9 332.5 963.8 332.3Z M836.2 328.8C830.8 322.0 826.9 300.0 826.8 275.0C826.6 232.0 832.9 200.8 842.4 196.8C845.9 195.4 848.0 197.4 850.7 205.1C851.7 207.8 852.8 210.0 853.1 210.0C854.1 210.0 855.3 166.1 854.5 160.2C854.1 157.4 853.0 153.9 851.9 152.6C850.1 150.3 849.2 145.0 850.8 145.0C854.2 145.2 864.5 148.1 865.4 149.1C866.6 150.6 866.5 155.6 864.0 258.4C862.9 306.5 863.0 311.1 865.7 314.2C867.6 316.4 867.0 321.0 864.6 322.4C863.5 323.0 860.3 324.9 857.4 326.7C854.6 328.5 852.0 329.6 851.6 329.3C851.3 328.9 851.0 326.2 851.0 323.3C851.0 317.6 849.6 316.9 848.5 322.0C847.4 326.8 844.3 330.0 840.5 330.0C838.7 330.0 836.8 329.4 836.2 328.8Z M896.0 329.1C891.0 328.5 890.5 328.3 890.2 325.8C890.0 324.3 890.6 321.8 891.4 320.2C894.5 314.3 896.6 236.9 893.9 229.1C892.4 224.7 890.2 225.5 888.0 231.0C886.6 234.7 886.1 240.3 885.6 263.5C884.5 309.9 884.6 314.0 886.4 319.5C887.4 322.2 887.8 325.5 887.5 326.8C886.9 329.2 886.8 329.2 878.7 328.5C874.2 328.1 870.2 327.6 869.8 327.3C868.3 326.4 869.0 320.9 871.1 318.1C873.7 314.5 874.9 292.8 874.9 248.0C874.9 221.9 874.7 216.2 873.5 214.6C872.7 213.5 872.0 211.5 872.0 210.2C872.0 207.9 872.2 207.8 876.8 208.5C886.0 209.8 885.9 209.7 886.2 215.3L886.5 220.4L889.0 215.4C893.3 206.9 900.4 208.5 902.9 218.5C903.5 220.9 904.0 224.0 904.0 225.4C904.0 229.3 905.7 229.3 906.5 225.4C908.1 216.8 913.1 211.2 916.5 214.0C919.9 216.8 921.2 221.6 922.5 234.9C923.1 242.4 923.6 250.1 923.4 252.0C923.2 253.9 922.8 269.0 922.5 285.5C922.0 311.1 922.1 316.1 923.5 319.9C924.3 322.3 925.0 325.5 925.0 327.1L925.0 330.0L917.5 330.0L910.0 330.0L910.0 326.2C910.0 324.1 910.6 321.8 911.2 321.2C912.6 319.8 913.7 239.8 912.5 233.2C911.5 227.7 908.9 229.3 906.0 237.3C905.5 238.8 904.8 256.6 904.4 277.3C903.9 309.6 904.0 315.1 905.4 319.0C906.3 321.5 907.0 325.0 907.0 326.8C907.0 330.4 907.3 330.3 896.0 329.1Z M943.4 324.2C945.9 316.5 947.2 247.4 945.2 235.2C943.0 222.3 940.1 227.7 938.8 247.0C937.5 265.1 938.3 319.6 939.8 323.2C941.1 326.4 942.6 326.8 943.4 324.2Z M796.3 324.0C790.6 323.7 785.7 323.1 785.3 322.7C784.1 321.4 785.0 314.6 786.5 313.4C789.7 311.0 790.3 306.0 791.6 267.0C793.8 205.6 793.7 199.9 791.0 196.3C789.8 194.6 789.0 192.2 789.2 190.9C789.5 188.2 792.6 188.1 801.8 190.3L806.5 191.5L807.0 199.8L807.5 208.1L809.8 201.7C812.6 193.9 815.8 190.5 819.4 191.4C822.7 192.2 823.7 194.3 825.1 203.1C826.3 210.7 825.2 222.9 822.8 229.2C820.5 235.3 815.8 230.8 814.3 221.1C814.0 219.1 813.3 216.7 812.8 215.7C811.9 214.0 811.7 214.0 810.0 215.5C807.5 217.8 806.2 231.9 804.9 272.1C803.8 307.9 804.1 312.6 808.1 315.4C809.7 316.5 810.1 317.7 809.8 320.6C809.4 325.1 810.1 324.9 796.3 324.0Z M1072.3 308.0C1072.3 300.3 1072.0 293.7 1071.7 293.4C1069.7 291.4 1067.8 317.7 1069.6 322.5C1071.3 326.8 1072.3 321.2 1072.3 308.0Z M768.9 322.6C768.4 322.1 756.4 321.2 748.2 321.1C745.2 321.0 745.0 320.8 745.0 317.5C745.0 314.5 745.5 313.8 749.0 312.0C755.1 308.9 755.8 304.7 753.5 283.5C753.3 281.9 752.9 276.0 752.5 270.5L751.8 260.4L742.7 259.2C737.6 258.5 732.3 258.0 730.8 258.0C727.4 258.0 727.3 258.3 721.9 293.0C720.5 302.6 722.3 308.4 727.6 310.9C729.7 311.8 730.1 312.6 729.8 315.8L729.5 319.5L723.5 319.8C720.2 319.9 715.0 319.7 712.0 319.3C706.7 318.5 706.5 318.3 706.2 315.3C706.0 312.9 706.7 311.0 708.9 308.3C711.7 304.7 714.2 297.2 716.9 284.0C721.3 262.8 722.3 257.6 723.6 250.5C724.4 246.1 725.8 239.1 726.6 235.0C729.1 223.5 730.9 213.4 732.4 203.5C733.1 198.6 734.0 193.8 734.3 193.0C734.7 192.2 735.9 185.9 737.0 179.0C738.2 172.1 739.5 165.2 740.0 163.5C740.5 161.8 742.5 151.7 744.5 141.0C746.5 130.3 748.6 118.8 749.2 115.5C750.5 108.9 751.5 107.1 752.9 108.6C753.4 109.1 755.0 121.7 756.4 136.5C757.9 151.3 759.5 167.1 760.0 171.5C760.5 175.9 761.4 185.1 762.0 192.0C762.6 198.9 763.3 206.1 763.6 208.0C763.8 209.9 764.5 216.7 765.0 223.0C765.6 229.3 766.4 237.0 766.9 240.0C767.4 243.0 767.9 248.2 767.9 251.5C768.0 254.8 768.4 259.1 768.9 261.0C769.4 262.9 770.1 267.9 770.4 272.0C772.3 295.9 775.7 314.0 778.2 314.0C778.7 314.0 779.0 315.9 778.8 318.2L778.5 322.5L774.0 322.8C771.5 323.0 769.2 322.9 768.9 322.6Z M210.0 319.0C210.0 317.2 209.3 317.0 203.6 317.0C197.2 317.0 194.4 318.4 197.1 320.1C197.9 320.6 201.1 321.0 204.2 321.0C209.3 321.0 210.0 320.8 210.0 319.0Z M847.5 310.0C851.0 303.3 851.8 294.9 852.5 261.0C853.1 226.3 852.6 218.4 849.3 214.8C846.1 211.2 844.0 215.2 841.9 228.7C839.8 242.2 839.2 297.8 841.1 306.0C842.8 313.5 845.0 314.8 847.5 310.0Z M1107.4 275.6C1107.2 264.3 1106.8 261.8 1105.3 263.4C1104.3 264.3 1103.6 284.4 1104.4 286.6C1104.7 287.4 1105.6 288.0 1106.3 287.7C1107.2 287.4 1107.5 284.2 1107.4 275.6Z M995.4 268.4C996.2 266.2 994.9 241.4 993.8 239.8C992.1 237.2 991.2 241.3 990.5 254.8C989.9 265.7 990.0 268.4 991.1 269.1C993.2 270.4 994.7 270.2 995.4 268.4Z M749.6 240.2C747.0 214.2 744.7 189.4 744.3 183.2C743.8 176.1 742.0 173.0 742.0 179.3C742.0 181.1 741.4 185.0 740.6 188.0C739.9 191.0 738.9 195.8 738.5 198.5C738.2 201.2 737.5 205.1 737.0 207.0C735.7 211.8 732.3 232.3 731.5 239.1L730.9 244.7L738.7 245.7C751.6 247.4 750.4 248.0 749.6 240.2Z M1083.0 239.5C1081.3 237.5 1080.5 223.7 1081.7 219.1C1084.0 210.3 1087.4 218.1 1086.9 230.8C1086.5 239.5 1085.2 242.2 1083.0 239.5Z M349.2 214.3C350.2 213.4 351.0 211.7 351.0 210.5C351.0 209.4 351.5 207.9 352.1 207.3C353.2 206.2 355.9 195.3 356.0 191.8C356.0 190.4 355.2 190.0 352.7 190.0C349.6 190.0 349.2 190.3 348.1 194.2C347.4 196.6 346.4 199.8 345.8 201.5C345.3 203.2 344.5 206.1 344.0 208.0C343.6 209.9 342.9 212.8 342.5 214.4C341.7 217.2 341.8 217.3 344.6 216.6C346.2 216.2 348.3 215.1 349.2 214.3Z M376.5 213.9C382.6 213.4 391.2 212.6 395.7 212.2C406.2 211.3 407.4 210.3 406.5 202.7C405.8 196.9 405.6 196.7 398.0 193.7C395.4 192.7 391.0 192.4 382.1 192.6C368.1 193.0 366.0 193.9 366.0 199.7C366.0 203.0 364.2 207.9 361.9 211.1C360.3 213.3 361.4 216.0 363.7 215.4C364.7 215.2 370.4 214.5 376.5 213.9Z M463.7 213.2C465.3 212.2 466.5 169.7 465.0 166.9C464.1 165.4 462.9 165.0 458.5 165.0L453.0 165.0L452.9 172.8C452.9 177.0 452.5 187.5 452.1 196.0C451.4 209.3 451.6 211.7 452.9 212.8C454.5 214.1 461.8 214.4 463.7 213.2Z M446.1 203.2C446.0 192.2 447.2 180.9 448.9 176.7C450.4 172.8 450.3 170.0 448.5 170.0C446.4 170.0 445.1 173.0 445.2 178.1C445.2 180.5 444.7 185.7 444.0 189.5C442.5 198.4 441.7 209.7 442.4 211.6C442.7 212.4 443.7 213.0 444.5 213.0C445.9 213.0 446.1 211.5 446.1 203.2Z M442.4 135.8C442.7 131.2 443.1 118.1 443.2 106.5L443.5 85.5L440.3 85.2C435.5 84.7 435.1 86.6 434.5 109.7C434.2 121.1 433.4 132.8 432.8 135.7C431.4 142.2 432.6 144.0 438.0 144.0L441.8 144.0L442.4 135.8Z"/></svg>